G04 ================== begin FILE IDENTIFICATION RECORD ==================*
G04 Layout Name:  mantis-3100_rev002.brd*
G04 Film Name:    lyr_top.art*
G04 File Format:  Gerber RS274X*
G04 File Origin:  Cadence Allegro 17.2-S041*
G04 Origin Date:  Tue Dec 11 12:39:33 2018*
G04 *
G04 Layer:  ETCH/TOP*
G04 Layer:  PIN/TOP*
G04 Layer:  VIA CLASS/TOP*
G04 *
G04 Offset:    (0.00 0.00)*
G04 Mirror:    No*
G04 Mode:      Positive*
G04 Rotation:  0*
G04 FullContactRelief:  No*
G04 UndefLineWidth:     10.00*
G04 ================== end FILE IDENTIFICATION RECORD ====================*
%FSLAX55Y55*MOIN*%
%IR0*IPPOS*OFA0.00000B0.00000*MIA0B0*SFA1.00000B1.00000*%
%ADD13C,.05*%
%ADD11C,.032*%
%ADD14C,.06*%
%ADD15C,.085*%
%ADD12R,.06X.06*%
%ADD10C,.25*%
%ADD16C,.01*%
%ADD17C,.015*%
%ADD18C,.01125*%
%ADD19C,.08004*%
%ADD22R,.37004X.07604*%
%ADD20R,.72704X.07604*%
%ADD21R,.98204X.07604*%
G75*
%LPD*%
G75*
G36*
G01X6000Y2000D02*
G02X2000Y6000I0J4000D01*
G01Y70498D01*
X7950D01*
G03X8952Y71500I0J1002D01*
G01Y77500D01*
G03X7950Y78502I-1002J0D01*
G01X2000D01*
Y169000D01*
G02X6000Y173000I4000J0D01*
G01X294000D01*
G02X298000Y169000I0J-4000D01*
G01Y78015D01*
G02X297359Y77696I-400J0D01*
G03X294950Y78502I-2409J-3197D01*
G03Y70498I0J-4002D01*
G03X297359Y71304I0J4003D01*
G02X298000Y70985I241J-319D01*
G01Y6000D01*
G02X294000Y2000I-4000J0D01*
G01X263970D01*
G02X263794Y2759I0J400D01*
G03X268002Y9500I-3295J6741D01*
G03X260500Y17002I-7502J0D01*
G01X260490D01*
G03X252998Y9510I0J-7492D01*
G01Y9500D01*
G03X257206Y2759I7503J0D01*
G02X257030Y2000I-176J-359D01*
G01X6000D01*
G37*
%LPC*%
G75*
G36*
G01X224302Y3198D02*
X214198D01*
Y15802D01*
X224302D01*
Y15502D01*
X246502D01*
Y3498D01*
X224302D01*
Y3198D01*
G37*
G36*
G01X32498Y10510D02*
G02X39990Y18002I7492J0D01*
G01X40000D01*
G02X32498Y10500I0J-7502D01*
G01Y10510D01*
G37*
G36*
G01X87198Y12698D02*
Y13191D01*
X86865D01*
X86814Y13068D01*
G02X81000Y9198I-5814J2432D01*
G02Y21802I0J6302D01*
G02X86452Y18660I0J-6301D01*
G03X87198Y18861I346J200D01*
G01Y20302D01*
X139502D01*
Y12698D01*
X87198D01*
G37*
G36*
G01X26610Y79547D02*
Y114712D01*
X35213Y123314D01*
X52787D01*
X57814Y118287D01*
Y112823D01*
G03X58480Y112524I400J0D01*
G02X62500Y114052I4020J-4524D01*
G02X68552Y108000I0J-6052D01*
G02X62523Y101948I-6052J0D01*
G03X62213Y101297I1J-400D01*
G02X63552Y97500I-4714J-3797D01*
G02X51448I-6052J0D01*
G02X53506Y102047I6052J0D01*
G03X53525Y102631I-263J301D01*
G01X51136Y105021D01*
Y115521D01*
X50021Y116636D01*
X37979D01*
X33290Y111946D01*
Y79547D01*
G03X33786Y79159I400J0D01*
G02X34950Y79302I1163J-4659D01*
G02Y69698I0J-4802D01*
G02X30508Y72677I0J4801D01*
G01X30492Y72714D01*
X29950Y73256D01*
X29408Y72714D01*
X29392Y72677D01*
G02X24950Y69698I-4442J1822D01*
G02Y79302I0J4802D01*
G02X26114Y79159I1J-4802D01*
G03X26610Y79547I96J388D01*
G37*
G36*
G01X89686Y95063D02*
Y116787D01*
X97213Y124314D01*
X111787D01*
X118314Y117787D01*
Y113225D01*
G03X118949Y112901I400J0D01*
G02X122500Y114052I3551J-4902D01*
G02X128552Y108000I0J-6052D01*
G02X122523Y101948I-6052J0D01*
G03X122213Y101297I1J-400D01*
G02X123552Y97500I-4714J-3797D01*
G02X111448I-6052J0D01*
G02X113506Y102047I6052J0D01*
G03X113525Y102631I-263J301D01*
G01X111636Y104521D01*
Y115021D01*
X109021Y117636D01*
X99979D01*
X96364Y114021D01*
Y97829D01*
X113290Y80904D01*
Y79547D01*
G03X113786Y79159I400J0D01*
G02X114950Y79302I1163J-4659D01*
G02Y69698I0J-4802D01*
G02X110493Y72713I0J4802D01*
G01X109950Y73256D01*
X109407Y72713D01*
G02X104950Y69698I-4457J1787D01*
G02X100148Y74500I0J4802D01*
G02X104535Y79284I4802J0D01*
G03X104783Y79965I-35J398D01*
G01X89686Y95063D01*
G37*
G36*
G01X171136Y104521D02*
Y116979D01*
X178971Y124814D01*
X201529D01*
X209364Y116979D01*
Y93021D01*
X196121Y79777D01*
G03X196292Y79111I283J-282D01*
G02X199752Y74500I-1342J-4611D01*
G02X194950Y69698I-4802J0D01*
G02X190508Y72677I0J4801D01*
G01X190492Y72714D01*
X189950Y73256D01*
X189408Y72714D01*
X189392Y72677D01*
G02X184950Y69698I-4442J1822D01*
G02Y79302I0J4802D01*
G02X186114Y79159I1J-4802D01*
G03X186610Y79547I96J388D01*
G01Y79712D01*
X202686Y95787D01*
Y114213D01*
X198763Y118136D01*
X181737D01*
X177814Y114213D01*
Y112823D01*
G03X178480Y112524I400J0D01*
G02X182500Y114052I4020J-4524D01*
G02X188552Y108000I0J-6052D01*
G02X182523Y101948I-6052J0D01*
G03X182213Y101297I1J-400D01*
G02X183552Y97500I-4714J-3797D01*
G02X171448I-6052J0D01*
G02X173263Y101822I6052J1D01*
G03X173266Y102390I-280J285D01*
G01X171136Y104521D01*
G37*
G36*
G01X231136Y105021D02*
Y118212D01*
X237738Y124814D01*
X263029D01*
X273290Y114554D01*
Y79547D01*
G03X273786Y79159I400J0D01*
G02X274950Y79302I1163J-4659D01*
G02Y69698I0J-4802D01*
G02X270508Y72677I0J4801D01*
G01X270492Y72714D01*
X269950Y73256D01*
X269408Y72714D01*
X269392Y72677D01*
G02X264950Y69698I-4442J1822D01*
G02Y79302I0J4802D01*
G02X266114Y79159I1J-4802D01*
G03X266610Y79547I96J388D01*
G01Y111788D01*
X260263Y118136D01*
X240504D01*
X237814Y115446D01*
Y112823D01*
G03X238480Y112524I400J0D01*
G02X242500Y114052I4020J-4524D01*
G02X248552Y108000I0J-6052D01*
G02X242523Y101948I-6052J0D01*
G03X242213Y101297I1J-400D01*
G02X243552Y97500I-4714J-3797D01*
G02X231448I-6052J0D01*
G02X233506Y102047I6052J0D01*
G03X233525Y102631I-263J301D01*
G01X231136Y105021D01*
G37*
G54D19*
X14950Y74500D03*
X64950D03*
X54950D03*
X44950D03*
X94950D03*
X84950D03*
X74950D03*
X124950D03*
X154950D03*
X144950D03*
X134950D03*
X174950D03*
X164950D03*
X214950D03*
X204950D03*
X244950D03*
X234950D03*
X224950D03*
X254950D03*
X284950D03*
G54D22*
X165200Y16500D03*
G54D20*
X112550Y35500D03*
G54D21*
X126300Y51500D03*
%LPD*%
G75*
G54D10*
X18000Y17500D03*
Y157500D03*
X283000Y17500D03*
Y157500D03*
G54D11*
X10500Y43500D03*
Y87500D03*
Y127500D03*
X40500Y25500D03*
Y61500D03*
X30500Y43500D03*
X20500Y61500D03*
X25000Y67500D03*
X35000D03*
X30500Y127500D03*
X20500Y107500D03*
X40500Y147500D03*
X70500Y7500D03*
X50500D03*
X60500Y25500D03*
X70500Y43500D03*
X50500D03*
X60500Y61500D03*
X71500Y88500D03*
X53000Y90000D03*
X50500Y127500D03*
X67500Y115000D03*
X70500Y167500D03*
X50500D03*
X90500Y7500D03*
X100500Y25500D03*
X80500D03*
X100500Y61500D03*
X80500D03*
X95000Y67500D03*
X91000Y89000D03*
X95000Y127500D03*
X79500D03*
X80500Y107500D03*
X86500Y148000D03*
X90500Y167500D03*
X130500Y7500D03*
X110500D03*
X120500Y25500D03*
X110500Y43500D03*
X120500Y61500D03*
X105000Y67500D03*
X131000Y88000D03*
X113000Y90000D03*
X129500Y127500D03*
X110500D03*
X127500Y115000D03*
X106500Y148000D03*
X130500Y167500D03*
X110500D03*
X150500Y7500D03*
X160500Y25500D03*
X140500D03*
X160500Y61500D03*
X140500D03*
X150500Y87500D03*
X157000Y107500D03*
X141500D03*
X148000Y127500D03*
X140000Y148000D03*
X160000D03*
X150500Y167500D03*
X190500Y7500D03*
X170500D03*
X180500Y25500D03*
X190500Y43500D03*
X170500D03*
X180500Y61500D03*
X185000Y67500D03*
X173000Y90000D03*
X168000Y127500D03*
X183500D03*
X187500Y115000D03*
X190500Y167500D03*
X170500D03*
X210500Y7500D03*
X220500Y25500D03*
X200500D03*
X220500Y61500D03*
X210500Y43500D03*
X200500Y61500D03*
X195000Y67500D03*
X208500Y87500D03*
X218500Y107500D03*
X201000D03*
X202000Y127500D03*
X222000D03*
X193000Y147500D03*
X213000D03*
X210500Y167500D03*
X250500Y7500D03*
X240500Y25500D03*
X250500Y43500D03*
X230500D03*
X240500Y61500D03*
X233000Y90000D03*
X250500Y127500D03*
X247500Y115000D03*
X250500Y167500D03*
X230500D03*
X260500Y25500D03*
X280500Y61500D03*
X270500Y43500D03*
X260500Y61500D03*
X275000Y67500D03*
X265000D03*
X270500Y127500D03*
X280500Y107500D03*
X260500D03*
Y147500D03*
X290500Y43500D03*
X286000Y87500D03*
X290500Y127500D03*
G54D12*
X4950Y74500D03*
G54D13*
X40000Y10500D03*
X260500Y9500D03*
G54D14*
X34950Y74500D03*
X24950D03*
X14950D03*
X64950D03*
X54950D03*
X44950D03*
X94950D03*
X84950D03*
X74950D03*
X124950D03*
X114950D03*
X104950D03*
X154950D03*
X144950D03*
X134950D03*
X184950D03*
X174950D03*
X164950D03*
X214950D03*
X204950D03*
X194950D03*
X244950D03*
X234950D03*
X224950D03*
X274950D03*
X264950D03*
X254950D03*
X294950D03*
X284950D03*
G54D15*
X47000Y97500D03*
X73000D03*
X57500D03*
X47000Y108000D03*
X73000D03*
X62500D03*
X47000Y160500D03*
X73000D03*
X107000Y97500D03*
X133000D03*
X117500D03*
X107000Y108000D03*
X133000D03*
X122500D03*
X107000Y160500D03*
X133000D03*
X167000Y97500D03*
X193000D03*
X177500D03*
X167000Y108000D03*
X193000D03*
X182500D03*
X167000Y160500D03*
X193000D03*
X227000Y97500D03*
X253000D03*
X237500D03*
X227000Y108000D03*
X253000D03*
X242500D03*
X227000Y160500D03*
X253000D03*
G54D16*
G01X78133Y38000D02*
Y33000D01*
X80667D01*
G01X85893Y37583D02*
X85513Y37833D01*
X85070Y38000D01*
X84563D01*
X83993Y37750D01*
X83550Y37333D01*
X83233Y36833D01*
X82980Y36000D01*
X82917Y35250D01*
X83043Y34500D01*
X83233Y34000D01*
X83613Y33500D01*
X84057Y33167D01*
X84500Y33000D01*
X84943D01*
X85387Y33167D01*
X85767Y33417D01*
X86083Y33750D01*
G01X93370Y33667D02*
X93877Y33250D01*
X94447Y33000D01*
X94953D01*
X95460Y33250D01*
X95840Y33667D01*
X96030Y34250D01*
X95903Y34833D01*
X95587Y35333D01*
X95017Y35667D01*
X94257Y35833D01*
X93813Y36167D01*
X93623Y36750D01*
X93750Y37333D01*
X94067Y37750D01*
X94510Y38000D01*
X94953D01*
X95397Y37833D01*
X95777Y37417D01*
G01X98533Y33000D02*
Y38000D01*
X100053D01*
X100560Y37750D01*
X100940Y37167D01*
X101067Y36500D01*
X100940Y35833D01*
X100623Y35333D01*
X100053Y35083D01*
X98533D01*
G01X106167Y33000D02*
X103633D01*
Y38000D01*
X106167D01*
G01X105153Y35583D02*
X103633D01*
G01X113517Y33000D02*
X115100Y38000D01*
X116683Y33000D01*
G01X116113Y34750D02*
X114087D01*
G01X118807Y33000D02*
Y38000D01*
X120073D01*
X120580Y37750D01*
X120960Y37417D01*
X121277Y36917D01*
X121530Y36333D01*
X121593Y35500D01*
X121530Y34667D01*
X121277Y34083D01*
X120960Y33583D01*
X120580Y33250D01*
X120073Y33000D01*
X118807D01*
G01X123717D02*
X125300Y38000D01*
X126883Y33000D01*
G01X126313Y34750D02*
X124287D01*
G01X129133Y33000D02*
Y38000D01*
X130653D01*
X131160Y37750D01*
X131540Y37167D01*
X131667Y36500D01*
X131540Y35833D01*
X131223Y35333D01*
X130653Y35083D01*
X129133D01*
G01X135500Y38000D02*
Y33000D01*
G01X134043Y38000D02*
X136957D01*
G01X141867Y33000D02*
X139333D01*
Y38000D01*
X141867D01*
G01X140853Y35583D02*
X139333D01*
G01X144433Y33000D02*
Y38000D01*
X146017D01*
X146523Y37750D01*
X146840Y37417D01*
X146967Y36750D01*
X146840Y36083D01*
X146460Y35667D01*
X146017Y35417D01*
X144433D01*
G01X146017D02*
X146967Y33000D01*
G01X89197Y18167D02*
X89577Y18667D01*
X90020Y18917D01*
X90527Y19000D01*
X91160Y18833D01*
X91603Y18417D01*
X91730Y17917D01*
X91667Y17417D01*
X91413Y17000D01*
X90147Y16167D01*
X89577Y15583D01*
X89197Y14750D01*
X89070Y14000D01*
X91730D01*
G01X95500Y19000D02*
X94993Y18833D01*
X94613Y18417D01*
X94360Y17917D01*
X94170Y17250D01*
X94107Y16500D01*
X94170Y15750D01*
X94360Y15083D01*
X94613Y14583D01*
X94993Y14167D01*
X95500Y14000D01*
X96007Y14167D01*
X96387Y14583D01*
X96640Y15083D01*
X96830Y15750D01*
X96893Y16500D01*
X96830Y17250D01*
X96640Y17917D01*
X96387Y18417D01*
X96007Y18833D01*
X95500Y19000D01*
G01X100600Y14000D02*
Y19000D01*
X99840Y18000D01*
G01Y14000D02*
X101360D01*
G01X105700D02*
X106143Y14083D01*
X106650Y14333D01*
X106967Y14750D01*
X107093Y15333D01*
X106967Y15917D01*
X106587Y16417D01*
X106017Y16667D01*
X105383D01*
X105003Y16833D01*
X104687Y17250D01*
X104560Y17833D01*
X104750Y18417D01*
X105193Y18833D01*
X105700Y19000D01*
X106207Y18833D01*
X106650Y18417D01*
X106840Y17833D01*
X106713Y17250D01*
X106397Y16833D01*
X106017Y16667D01*
X105383D01*
X104813Y16417D01*
X104433Y15917D01*
X104307Y15333D01*
X104433Y14750D01*
X104750Y14333D01*
X105257Y14083D01*
X105700Y14000D01*
G01X114697D02*
Y19000D01*
X117103D01*
G01X116217Y16583D02*
X114697D01*
G01X119733Y19000D02*
Y14000D01*
X122267D01*
G01X124707Y19000D02*
Y15417D01*
X124960Y14667D01*
X125467Y14167D01*
X126100Y14000D01*
X126733Y14167D01*
X127240Y14667D01*
X127493Y15417D01*
Y19000D01*
G01X129807Y14000D02*
Y19000D01*
G01X132213D02*
X129807Y15917D01*
G01X132593Y14000D02*
X130883Y17333D01*
G01X137567Y14000D02*
X135033D01*
Y19000D01*
X137567D01*
G01X136553Y16583D02*
X135033D01*
G01X86000Y15500D02*
G03I-5000J0D01*
G01X83000Y13500D02*
G02X82990Y17510I-2001J2000D01*
G01X78753Y49000D02*
Y54000D01*
X80400Y49833D01*
X82047Y54000D01*
Y49000D01*
G01X83917D02*
X85500Y54000D01*
X87083Y49000D01*
G01X86513Y50750D02*
X84487D01*
G01X89143Y49000D02*
Y54000D01*
X92057Y49000D01*
Y54000D01*
G01X95700D02*
Y49000D01*
G01X94243Y54000D02*
X97157D01*
G01X100040D02*
X101560D01*
G01X100800D02*
Y49000D01*
G01X100040D02*
X101560D01*
G01X104570Y49667D02*
X105077Y49250D01*
X105647Y49000D01*
X106153D01*
X106660Y49250D01*
X107040Y49667D01*
X107230Y50250D01*
X107103Y50833D01*
X106787Y51333D01*
X106217Y51667D01*
X105457Y51833D01*
X105013Y52167D01*
X104823Y52750D01*
X104950Y53333D01*
X105267Y53750D01*
X105710Y54000D01*
X106153D01*
X106597Y53833D01*
X106977Y53417D01*
G01X110177Y50667D02*
X111823D01*
G01X114707Y50000D02*
X115087Y49417D01*
X115593Y49083D01*
X116163Y49000D01*
X116670Y49083D01*
X117177Y49500D01*
X117493Y50000D01*
X117557Y50500D01*
X117430Y51083D01*
X116987Y51500D01*
X116543Y51667D01*
X115973D01*
G01X116543D02*
X116923Y51917D01*
X117240Y52333D01*
X117367Y52833D01*
X117240Y53333D01*
X116923Y53750D01*
X116353Y54000D01*
X115783Y53917D01*
X115213Y53583D01*
G01X121200Y49000D02*
Y54000D01*
X120440Y53000D01*
G01Y49000D02*
X121960D01*
G01X126300Y54000D02*
X125793Y53833D01*
X125413Y53417D01*
X125160Y52917D01*
X124970Y52250D01*
X124907Y51500D01*
X124970Y50750D01*
X125160Y50083D01*
X125413Y49583D01*
X125793Y49167D01*
X126300Y49000D01*
X126807Y49167D01*
X127187Y49583D01*
X127440Y50083D01*
X127630Y50750D01*
X127693Y51500D01*
X127630Y52250D01*
X127440Y52917D01*
X127187Y53417D01*
X126807Y53833D01*
X126300Y54000D01*
G01X131400D02*
X130893Y53833D01*
X130513Y53417D01*
X130260Y52917D01*
X130070Y52250D01*
X130007Y51500D01*
X130070Y50750D01*
X130260Y50083D01*
X130513Y49583D01*
X130893Y49167D01*
X131400Y49000D01*
X131907Y49167D01*
X132287Y49583D01*
X132540Y50083D01*
X132730Y50750D01*
X132793Y51500D01*
X132730Y52250D01*
X132540Y52917D01*
X132287Y53417D01*
X131907Y53833D01*
X131400Y54000D01*
G01X140333Y49000D02*
Y54000D01*
X141917D01*
X142423Y53750D01*
X142740Y53417D01*
X142867Y52750D01*
X142740Y52083D01*
X142360Y51667D01*
X141917Y51417D01*
X140333D01*
G01X141917D02*
X142867Y49000D01*
G01X147967D02*
X145433D01*
Y54000D01*
X147967D01*
G01X146953Y51583D02*
X145433D01*
G01X150217Y54000D02*
X151800Y49000D01*
X153383Y54000D01*
G01X162000D02*
X161493Y53833D01*
X161113Y53417D01*
X160860Y52917D01*
X160670Y52250D01*
X160607Y51500D01*
X160670Y50750D01*
X160860Y50083D01*
X161113Y49583D01*
X161493Y49167D01*
X162000Y49000D01*
X162507Y49167D01*
X162887Y49583D01*
X163140Y50083D01*
X163330Y50750D01*
X163393Y51500D01*
X163330Y52250D01*
X163140Y52917D01*
X162887Y53417D01*
X162507Y53833D01*
X162000Y54000D01*
G01X167100D02*
X166593Y53833D01*
X166213Y53417D01*
X165960Y52917D01*
X165770Y52250D01*
X165707Y51500D01*
X165770Y50750D01*
X165960Y50083D01*
X166213Y49583D01*
X166593Y49167D01*
X167100Y49000D01*
X167607Y49167D01*
X167987Y49583D01*
X168240Y50083D01*
X168430Y50750D01*
X168493Y51500D01*
X168430Y52250D01*
X168240Y52917D01*
X167987Y53417D01*
X167607Y53833D01*
X167100Y54000D01*
G01X170997Y53167D02*
X171377Y53667D01*
X171820Y53917D01*
X172327Y54000D01*
X172960Y53833D01*
X173403Y53417D01*
X173530Y52917D01*
X173467Y52417D01*
X173213Y52000D01*
X171947Y51167D01*
X171377Y50583D01*
X170997Y49750D01*
X170870Y49000D01*
X173530D01*
G01X148507Y14750D02*
X148887Y14333D01*
X149330Y14083D01*
X149900Y14000D01*
X150470Y14167D01*
X150913Y14500D01*
X151230Y15083D01*
X151293Y15750D01*
X151167Y16417D01*
X150850Y16833D01*
X150407Y17167D01*
X149963Y17250D01*
X149520Y17167D01*
X148950Y16833D01*
X149140Y19000D01*
X150850D01*
G01X155000D02*
X154493Y18833D01*
X154113Y18417D01*
X153860Y17917D01*
X153670Y17250D01*
X153607Y16500D01*
X153670Y15750D01*
X153860Y15083D01*
X154113Y14583D01*
X154493Y14167D01*
X155000Y14000D01*
X155507Y14167D01*
X155887Y14583D01*
X156140Y15083D01*
X156330Y15750D01*
X156393Y16500D01*
X156330Y17250D01*
X156140Y17917D01*
X155887Y18417D01*
X155507Y18833D01*
X155000Y19000D01*
G01X158897Y16083D02*
X159340Y16667D01*
X159720Y17000D01*
X160227Y17167D01*
X160670Y17000D01*
X160987Y16667D01*
X161240Y16167D01*
X161303Y15583D01*
X161240Y15083D01*
X160987Y14583D01*
X160607Y14167D01*
X160163Y14000D01*
X159657Y14167D01*
X159213Y14667D01*
X158960Y15417D01*
X158897Y16250D01*
X159023Y17333D01*
X159213Y17917D01*
X159530Y18500D01*
X159973Y18917D01*
X160417Y19000D01*
X160860Y18833D01*
X161177Y18417D01*
G01X165073Y14000D02*
X165200Y15083D01*
X165390Y16000D01*
X165643Y16833D01*
X165960Y17750D01*
X166467Y19000D01*
X163933D01*
G01X168907Y15000D02*
X169287Y14417D01*
X169793Y14083D01*
X170363Y14000D01*
X170870Y14083D01*
X171377Y14500D01*
X171693Y15000D01*
X171757Y15500D01*
X171630Y16083D01*
X171187Y16500D01*
X170743Y16667D01*
X170173D01*
G01X170743D02*
X171123Y16917D01*
X171440Y17333D01*
X171567Y17833D01*
X171440Y18333D01*
X171123Y18750D01*
X170553Y19000D01*
X169983Y18917D01*
X169413Y18583D01*
G01X174007Y14750D02*
X174387Y14333D01*
X174830Y14083D01*
X175400Y14000D01*
X175970Y14167D01*
X176413Y14500D01*
X176730Y15083D01*
X176793Y15750D01*
X176667Y16417D01*
X176350Y16833D01*
X175907Y17167D01*
X175463Y17250D01*
X175020Y17167D01*
X174450Y16833D01*
X174640Y19000D01*
X176350D01*
G01X180500D02*
X179993Y18833D01*
X179613Y18417D01*
X179360Y17917D01*
X179170Y17250D01*
X179107Y16500D01*
X179170Y15750D01*
X179360Y15083D01*
X179613Y14583D01*
X179993Y14167D01*
X180500Y14000D01*
X181007Y14167D01*
X181387Y14583D01*
X181640Y15083D01*
X181830Y15750D01*
X181893Y16500D01*
X181830Y17250D01*
X181640Y17917D01*
X181387Y18417D01*
X181007Y18833D01*
X180500Y19000D01*
G01X219200Y7000D02*
Y12000D01*
X218440Y11000D01*
G01Y7000D02*
X219960D01*
G01X215500Y4500D02*
X223000D01*
Y14500D01*
X215500D01*
Y4500D01*
G54D17*
G01X4950Y74500D02*
X9152Y70298D01*
G01X4950D02*
Y74500D01*
G01D02*
X9152Y78702D01*
G01X11779Y71329D02*
X14950Y74500D01*
G01D02*
X18121Y77671D01*
G01X11779D02*
X14950Y74500D01*
G01D02*
X18121Y71329D01*
G01X41779D02*
X44950Y74500D01*
G01D02*
X48121Y77671D01*
G01X41779D02*
X44950Y74500D01*
G01D02*
X48121Y71329D01*
G01X51779D02*
X54950Y74500D01*
G01D02*
X58121Y77671D01*
G01X51779D02*
X54950Y74500D01*
G01D02*
X58121Y71329D01*
G01X61779D02*
X64950Y74500D01*
G01D02*
X68121Y77671D01*
G01X61779D02*
X64950Y74500D01*
G01D02*
X68121Y71329D01*
G01X71779D02*
X74950Y74500D01*
G01D02*
X78121Y77671D01*
G01X71779D02*
X74950Y74500D01*
G01D02*
X78121Y71329D01*
G01X81779D02*
X84950Y74500D01*
G01D02*
X88121Y77671D01*
G01X81779D02*
X84950Y74500D01*
G01D02*
X88121Y71329D01*
G01X91779D02*
X94950Y74500D01*
G01D02*
X98121Y77671D01*
G01X91779D02*
X94950Y74500D01*
G01D02*
X98121Y71329D01*
G01X121779D02*
X124950Y74500D01*
G01D02*
X128121Y77671D01*
G01X121779D02*
X124950Y74500D01*
G01D02*
X128121Y71329D01*
G01X131779D02*
X134950Y74500D01*
G01D02*
X138121Y77671D01*
G01X131779D02*
X134950Y74500D01*
G01D02*
X138121Y71329D01*
G01X141779D02*
X144950Y74500D01*
G01D02*
X148121Y77671D01*
G01X141779D02*
X144950Y74500D01*
G01D02*
X148121Y71329D01*
G01X151779D02*
X154950Y74500D01*
G01D02*
X158121Y77671D01*
G01X151779D02*
X154950Y74500D01*
G01D02*
X158121Y71329D01*
G01X161779D02*
X164950Y74500D01*
G01D02*
X168121Y77671D01*
G01X161779D02*
X164950Y74500D01*
G01D02*
X168121Y71329D01*
G01X171779D02*
X174950Y74500D01*
G01D02*
X178121Y77671D01*
G01X171779D02*
X174950Y74500D01*
G01D02*
X178121Y71329D01*
G01X201779D02*
X204950Y74500D01*
G01D02*
X208121Y77671D01*
G01X201779D02*
X204950Y74500D01*
G01D02*
X208121Y71329D01*
G01X211779D02*
X214950Y74500D01*
G01D02*
X218121Y77671D01*
G01X211779D02*
X214950Y74500D01*
G01D02*
X218121Y71329D01*
G01X221779D02*
X224950Y74500D01*
G01D02*
X228121Y77671D01*
G01X221779D02*
X224950Y74500D01*
G01D02*
X228121Y71329D01*
G01X231779D02*
X234950Y74500D01*
G01D02*
X238121Y77671D01*
G01X231779D02*
X234950Y74500D01*
G01D02*
X238121Y71329D01*
G01X241779D02*
X244950Y74500D01*
G01D02*
X248121Y77671D01*
G01X241779D02*
X244950Y74500D01*
G01D02*
X248121Y71329D01*
G01X251779D02*
X254950Y74500D01*
G01D02*
X258121Y77671D01*
G01X251779D02*
X254950Y74500D01*
G01D02*
X258121Y71329D01*
G01X294950Y70298D02*
Y74500D01*
G01X281779Y71329D02*
X284950Y74500D01*
G01D02*
X288121Y77671D01*
G01X281779D02*
X284950Y74500D01*
G01D02*
X288121Y71329D01*
G01X291779D02*
X294950Y74500D01*
G01X291779Y77671D02*
X294950Y74500D01*
G54D18*
G01X57500Y97500D02*
Y102000D01*
X53500Y106000D01*
Y116500D01*
X51000Y119000D01*
X37000D01*
X30925Y112925D01*
Y75625D01*
X32050Y74500D01*
X34950D01*
G01X62500Y108000D02*
X59379Y104879D01*
X57379D01*
X55450Y106808D01*
Y117308D01*
X51808Y120950D01*
X36192D01*
X28975Y113733D01*
Y75625D01*
X27850Y74500D01*
X24950D01*
G01X104950D02*
X107850D01*
X108975Y75625D01*
Y79117D01*
X92050Y96042D01*
Y115808D01*
X98192Y121950D01*
X110808D01*
X115950Y116808D01*
Y106308D01*
X117379Y104879D01*
X119379D01*
X122500Y108000D01*
G01X114950Y74500D02*
X112050D01*
X110925Y75625D01*
Y79925D01*
X94000Y96850D01*
Y115000D01*
X99000Y120000D01*
X110000D01*
X114000Y116000D01*
Y105500D01*
X117500Y102000D01*
Y97500D01*
G01X194950Y74500D02*
X192050D01*
X190925Y75625D01*
Y77925D01*
X207000Y94000D01*
Y116000D01*
X200550Y122450D01*
X179950D01*
X173500Y116000D01*
Y105500D01*
X177500Y101500D01*
Y97500D01*
G01X184950Y74500D02*
X187850D01*
X188975Y75625D01*
Y78733D01*
X205050Y94808D01*
Y115192D01*
X199742Y120500D01*
X180758D01*
X175450Y115192D01*
Y106308D01*
X176879Y104879D01*
X179379D01*
X182500Y108000D01*
G01X274950Y74500D02*
X272050D01*
X270925Y75625D01*
Y113575D01*
X262050Y122450D01*
X238717D01*
X233500Y117233D01*
Y106000D01*
X237500Y102000D01*
Y97500D01*
G01X264950Y74500D02*
X267850D01*
X268975Y75625D01*
Y112767D01*
X261242Y120500D01*
X239525D01*
X235450Y116425D01*
Y106808D01*
X237379Y104879D01*
X239379D01*
X242500Y108000D01*
M02*
