G04 ================== begin FILE IDENTIFICATION RECORD ==================*
G04 Layout Name:  mantis-3100_rev002.brd*
G04 Film Name:    lyr_bottom.art*
G04 File Format:  Gerber RS274X*
G04 File Origin:  Cadence Allegro 17.2-S041*
G04 Origin Date:  Tue Dec 11 12:39:34 2018*
G04 *
G04 Layer:  ETCH/BOTTOM*
G04 Layer:  PIN/BOTTOM*
G04 Layer:  VIA CLASS/BOTTOM*
G04 *
G04 Offset:    (0.00 0.00)*
G04 Mirror:    No*
G04 Mode:      Positive*
G04 Rotation:  0*
G04 FullContactRelief:  No*
G04 UndefLineWidth:     10.00*
G04 ================== end FILE IDENTIFICATION RECORD ====================*
%FSLAX55Y55*MOIN*%
%IR0*IPPOS*OFA0.00000B0.00000*MIA0B0*SFA1.00000B1.00000*%
%ADD13C,.05*%
%ADD11C,.032*%
%ADD14C,.06*%
%ADD15C,.085*%
%ADD12R,.06X.06*%
%ADD10C,.25*%
%ADD16C,.01*%
%ADD17C,.015*%
%ADD18C,.025*%
%ADD20C,.08004*%
%ADD22R,.98204X.07604*%
%ADD21C,.10504*%
%ADD19C,.27004*%
G75*
%LPD*%
G75*
G36*
G01X6000Y173000D02*
X294000D01*
G02X298000Y169000I0J-4000D01*
G01Y78015D01*
G02X297359Y77696I-400J0D01*
G03X294950Y78502I-2409J-3197D01*
G03Y70498I0J-4002D01*
G03X297359Y71304I0J4003D01*
G02X298000Y70985I241J-319D01*
G01Y6000D01*
G02X294000Y2000I-4000J0D01*
G01X263970D01*
G02X263794Y2759I0J400D01*
G03X268002Y9500I-3295J6741D01*
G01Y9510D01*
G03X260510Y17002I-7492J0D01*
G01X260500D01*
G03X252998Y9500I0J-7502D01*
G03X257206Y2759I7503J0D01*
G02X257030Y2000I-176J-359D01*
G01X6000D01*
G02X2000Y6000I0J4000D01*
G01Y70498D01*
X7950D01*
G03X8952Y71500I0J1002D01*
G01Y77500D01*
G03X7950Y78502I-1002J0D01*
G01X2000D01*
Y169000D01*
G02X6000Y173000I4000J0D01*
G37*
%LPC*%
G75*
G36*
G01X214498Y15502D02*
X236698D01*
Y15802D01*
X246802D01*
Y3198D01*
X236698D01*
Y3498D01*
X214498D01*
Y15502D01*
G37*
G36*
G01X47502Y10500D02*
G02X40000Y18002I-7502J0D01*
G01X40010D01*
G02X47502Y10510I0J-7492D01*
G01Y10500D01*
G37*
G36*
G01X78069Y50220D02*
X78400Y50552D01*
X78815D01*
X79193Y50720D01*
X79631Y50552D01*
X98083D01*
X103470Y38431D01*
X103802Y38100D01*
Y37685D01*
X103970Y37307D01*
X103802Y36869D01*
Y36400D01*
X103508Y36107D01*
X103360Y35720D01*
X102931Y35530D01*
X102600Y35198D01*
X102185D01*
X101807Y35030D01*
X101369Y35198D01*
X82917D01*
X77530Y47319D01*
X77198Y47650D01*
Y48065D01*
X77030Y48443D01*
X77198Y48881D01*
Y49350D01*
X77492Y49643D01*
X77640Y50030D01*
X78069Y50220D01*
G37*
G36*
G01X124799Y51302D02*
X124886D01*
X125085Y51502D01*
X159502D01*
Y35498D01*
X122498D01*
Y48915D01*
X122698Y49114D01*
Y49201D01*
X124799Y51302D01*
G37*
G36*
G01X57477Y103552D02*
G03X57787Y104203I-1J400D01*
G02X56448Y108000I4714J3797D01*
G02X62500Y114052I6052J0D01*
G02X67857Y110816I0J-6052D01*
G03X68550Y110789I354J186D01*
G02X73000Y113252I4450J-2788D01*
G02X78252Y108000I0J-5252D01*
G02X74945Y103122I-5251J0D01*
G03Y102378I148J-372D01*
G02X78252Y97500I-1944J-4878D01*
G02X67748I-5252J0D01*
G02X71055Y102378I5251J0D01*
G03Y103122I-148J372D01*
G02X68550Y105211I1945J4878D01*
G03X67857Y105184I-339J-213D01*
G02X62523Y101948I-5357J2816D01*
G03X62213Y101297I1J-400D01*
G02X63552Y97500I-4714J-3797D01*
G02X57500Y91448I-6052J0D01*
G02X52143Y94684I0J6052D01*
G03X51450Y94711I-354J-186D01*
G02X47000Y92248I-4450J2788D01*
G02X41748Y97500I0J5252D01*
G02X45055Y102378I5251J0D01*
G03Y103122I-148J372D01*
G02X41748Y108000I1944J4878D01*
G02X52252I5252J0D01*
G02X48945Y103122I-5251J0D01*
G03Y102378I148J-372D01*
G02X51450Y100289I-1945J-4878D01*
G03X52143Y100316I339J213D01*
G02X57477Y103552I5357J-2816D01*
G37*
G36*
G01X117477D02*
G03X117787Y104203I-1J400D01*
G02X116448Y108000I4714J3797D01*
G02X122500Y114052I6052J0D01*
G02X127857Y110816I0J-6052D01*
G03X128550Y110789I354J186D01*
G02X133000Y113252I4450J-2788D01*
G02X138252Y108000I0J-5252D01*
G02X134945Y103122I-5251J0D01*
G03Y102378I148J-372D01*
G02X138252Y97500I-1944J-4878D01*
G02X127748I-5252J0D01*
G02X131055Y102378I5251J0D01*
G03Y103122I-148J372D01*
G02X128550Y105211I1945J4878D01*
G03X127857Y105184I-339J-213D01*
G02X122523Y101948I-5357J2816D01*
G03X122213Y101297I1J-400D01*
G02X123552Y97500I-4714J-3797D01*
G02X117500Y91448I-6052J0D01*
G02X112143Y94684I0J6052D01*
G03X111450Y94711I-354J-186D01*
G02X107000Y92248I-4450J2788D01*
G02X101748Y97500I0J5252D01*
G02X105055Y102378I5251J0D01*
G03Y103122I-148J372D01*
G02X101748Y108000I1944J4878D01*
G02X112252I5252J0D01*
G02X108945Y103122I-5251J0D01*
G03Y102378I148J-372D01*
G02X111450Y100289I-1945J-4878D01*
G03X112143Y100316I339J213D01*
G02X117477Y103552I5357J-2816D01*
G37*
G36*
G01X177477D02*
G03X177787Y104203I-1J400D01*
G02X176448Y108000I4714J3797D01*
G02X182500Y114052I6052J0D01*
G02X187857Y110816I0J-6052D01*
G03X188550Y110789I354J186D01*
G02X193000Y113252I4450J-2788D01*
G02X198252Y108000I0J-5252D01*
G02X194945Y103122I-5251J0D01*
G03Y102378I148J-372D01*
G02X198252Y97500I-1944J-4878D01*
G02X187748I-5252J0D01*
G02X191055Y102378I5251J0D01*
G03Y103122I-148J372D01*
G02X188550Y105211I1945J4878D01*
G03X187857Y105184I-339J-213D01*
G02X182523Y101948I-5357J2816D01*
G03X182213Y101297I1J-400D01*
G02X183552Y97500I-4714J-3797D01*
G02X177500Y91448I-6052J0D01*
G02X172143Y94684I0J6052D01*
G03X171450Y94711I-354J-186D01*
G02X167000Y92248I-4450J2788D01*
G02X161748Y97500I0J5252D01*
G02X165055Y102378I5251J0D01*
G03Y103122I-148J372D01*
G02X161748Y108000I1944J4878D01*
G02X172252I5252J0D01*
G02X168945Y103122I-5251J0D01*
G03Y102378I148J-372D01*
G02X171450Y100289I-1945J-4878D01*
G03X172143Y100316I339J213D01*
G02X177477Y103552I5357J-2816D01*
G37*
G36*
G01X237477D02*
G03X237787Y104203I-1J400D01*
G02X236448Y108000I4714J3797D01*
G02X242500Y114052I6052J0D01*
G02X247857Y110816I0J-6052D01*
G03X248550Y110789I354J186D01*
G02X253000Y113252I4450J-2788D01*
G02X258252Y108000I0J-5252D01*
G02X254945Y103122I-5251J0D01*
G03Y102378I148J-372D01*
G02X258252Y97500I-1944J-4878D01*
G02X247748I-5252J0D01*
G02X251055Y102378I5251J0D01*
G03Y103122I-148J372D01*
G02X248550Y105211I1945J4878D01*
G03X247857Y105184I-339J-213D01*
G02X242523Y101948I-5357J2816D01*
G03X242213Y101297I1J-400D01*
G02X243552Y97500I-4714J-3797D01*
G02X237500Y91448I-6052J0D01*
G02X232143Y94684I0J6052D01*
G03X231450Y94711I-354J-186D01*
G02X227000Y92248I-4450J2788D01*
G02X221748Y97500I0J5252D01*
G02X225055Y102378I5251J0D01*
G03Y103122I-148J372D01*
G02X221748Y108000I1944J4878D01*
G02X232252I5252J0D01*
G02X228945Y103122I-5251J0D01*
G03Y102378I148J-372D01*
G02X231450Y100289I-1945J-4878D01*
G03X232143Y100316I339J213D01*
G02X237477Y103552I5357J-2816D01*
G37*
G36*
G01X29566Y73175D02*
G02X24950Y79302I-4616J1325D01*
G02X29566Y75825I0J-4803D01*
G03X30334I384J110D01*
G02X34950Y79302I4616J-1326D01*
G02Y69698I0J-4802D01*
G02X30334Y73175I0J4803D01*
G03X29566I-384J-110D01*
G37*
G36*
G01X109566D02*
G02X104950Y79302I-4616J1325D01*
G02X109566Y75825I0J-4803D01*
G03X110334I384J110D01*
G02X114950Y79302I4616J-1326D01*
G02Y69698I0J-4802D01*
G02X110334Y73175I0J4803D01*
G03X109566I-384J-110D01*
G37*
G36*
G01X189566D02*
G02X184950Y79302I-4616J1325D01*
G02X189566Y75825I0J-4803D01*
G03X190334I384J110D01*
G02X194950Y79302I4616J-1326D01*
G02Y69698I0J-4802D01*
G02X190334Y73175I0J4803D01*
G03X189566I-384J-110D01*
G37*
G36*
G01X269566D02*
G02X264950Y79302I-4616J1325D01*
G02X269566Y75825I0J-4803D01*
G03X270334I384J110D01*
G02X274950Y79302I4616J-1326D01*
G02Y69698I0J-4802D01*
G02X270334Y73175I0J4803D01*
G03X269566I-384J-110D01*
G37*
G54D20*
X14950Y74500D03*
X64950D03*
X54950D03*
X44950D03*
X94950D03*
X84950D03*
X74950D03*
X124950D03*
X154950D03*
X144950D03*
X134950D03*
X174950D03*
X164950D03*
X214950D03*
X204950D03*
X244950D03*
X234950D03*
X224950D03*
X254950D03*
X284950D03*
G54D22*
X122700Y16500D03*
G54D21*
X73000Y160500D03*
X47000D03*
X133000D03*
X107000D03*
X193000D03*
X167000D03*
X253000D03*
X227000D03*
G54D19*
X18000Y17500D03*
Y157500D03*
X283000Y17500D03*
Y157500D03*
%LPD*%
G75*
G36*
G01X158500Y36500D02*
Y50500D01*
X125500D01*
X123500Y48500D01*
Y36500D01*
X158500D01*
G37*
%LPC*%
G75*
G36*
G01X152580Y38000D02*
X155780D01*
X155980Y38200D01*
Y38800D01*
X155780Y39000D01*
X152580D01*
X152380Y38800D01*
Y38200D01*
X152580Y38000D01*
G37*
G36*
G01X143820D02*
X147020D01*
X147220Y38200D01*
Y38800D01*
X147020Y39000D01*
X143820D01*
X143620Y38800D01*
Y38200D01*
X143820Y38000D01*
G37*
G36*
G01X135020D02*
X138220D01*
X138420Y38200D01*
Y38800D01*
X138220Y39000D01*
X135020D01*
X134820Y38800D01*
Y38200D01*
X135020Y38000D01*
G37*
G36*
G01X126220D02*
X129420D01*
X129620Y38200D01*
Y38800D01*
X129420Y39000D01*
X126220D01*
X126020Y38800D01*
Y38200D01*
X126220Y38000D01*
G37*
G36*
G01X156380Y39200D02*
X156980D01*
X157180Y39400D01*
Y42600D01*
X156980Y42800D01*
X156380D01*
X156180Y42600D01*
Y39400D01*
X156380Y39200D01*
G37*
G36*
G01X151380D02*
X151980D01*
X152180Y39400D01*
Y42600D01*
X151980Y42800D01*
X151380D01*
X151180Y42600D01*
Y39400D01*
X151380Y39200D01*
G37*
G36*
G01X147620D02*
X148220D01*
X148420Y39400D01*
Y42600D01*
X148220Y42800D01*
X147620D01*
X147420Y42600D01*
Y39400D01*
X147620Y39200D01*
G37*
G36*
G01X142620D02*
X143220D01*
X143420Y39400D01*
Y42600D01*
X143220Y42800D01*
X142620D01*
X142420Y42600D01*
Y39400D01*
X142620Y39200D01*
G37*
G36*
G01X138820D02*
X139420D01*
X139620Y39400D01*
Y42600D01*
X139420Y42800D01*
X138820D01*
X138620Y42600D01*
Y39400D01*
X138820Y39200D01*
G37*
G36*
G01X133820D02*
X134420D01*
X134620Y39400D01*
Y42600D01*
X134420Y42800D01*
X133820D01*
X133620Y42600D01*
Y39400D01*
X133820Y39200D01*
G37*
G36*
G01X130020D02*
X130620D01*
X130820Y39400D01*
Y42600D01*
X130620Y42800D01*
X130020D01*
X129820Y42600D01*
Y39400D01*
X130020Y39200D01*
G37*
G36*
G01X125020D02*
X125620D01*
X125820Y39400D01*
Y42600D01*
X125620Y42800D01*
X125020D01*
X124820Y42600D01*
Y39400D01*
X125020Y39200D01*
G37*
G36*
G01X152580Y43000D02*
X155780D01*
X155980Y43200D01*
Y43800D01*
X155780Y44000D01*
X152580D01*
X152380Y43800D01*
Y43200D01*
X152580Y43000D01*
G37*
G36*
G01X143820D02*
X147020D01*
X147220Y43200D01*
Y43800D01*
X147020Y44000D01*
X143820D01*
X143620Y43800D01*
Y43200D01*
X143820Y43000D01*
G37*
G36*
G01X135020D02*
X138220D01*
X138420Y43200D01*
Y43800D01*
X138220Y44000D01*
X135020D01*
X134820Y43800D01*
Y43200D01*
X135020Y43000D01*
G37*
G36*
G01X126220D02*
X129420D01*
X129620Y43200D01*
Y43800D01*
X129420Y44000D01*
X126220D01*
X126020Y43800D01*
Y43200D01*
X126220Y43000D01*
G37*
G36*
G01X156380Y44200D02*
X156980D01*
X157180Y44400D01*
Y47600D01*
X156980Y47800D01*
X156380D01*
X156180Y47600D01*
Y44400D01*
X156380Y44200D01*
G37*
G36*
G01X151380D02*
X151980D01*
X152180Y44400D01*
Y47600D01*
X151980Y47800D01*
X151380D01*
X151180Y47600D01*
Y44400D01*
X151380Y44200D01*
G37*
G36*
G01X147620D02*
X148220D01*
X148420Y44400D01*
Y47600D01*
X148220Y47800D01*
X147620D01*
X147420Y47600D01*
Y44400D01*
X147620Y44200D01*
G37*
G36*
G01X142620D02*
X143220D01*
X143420Y44400D01*
Y47600D01*
X143220Y47800D01*
X142620D01*
X142420Y47600D01*
Y44400D01*
X142620Y44200D01*
G37*
G36*
G01X138820D02*
X139420D01*
X139620Y44400D01*
Y47600D01*
X139420Y47800D01*
X138820D01*
X138620Y47600D01*
Y44400D01*
X138820Y44200D01*
G37*
G36*
G01X133820D02*
X134420D01*
X134620Y44400D01*
Y47600D01*
X134420Y47800D01*
X133820D01*
X133620Y47600D01*
Y44400D01*
X133820Y44200D01*
G37*
G36*
G01X130020D02*
X130620D01*
X130820Y44400D01*
Y47600D01*
X130620Y47800D01*
X130020D01*
X129820Y47600D01*
Y44400D01*
X130020Y44200D01*
G37*
G36*
G01X125020D02*
X125620D01*
X125820Y44400D01*
Y47600D01*
X125620Y47800D01*
X125020D01*
X124820Y47600D01*
Y44400D01*
X125020Y44200D01*
G37*
G36*
G01X152580Y48000D02*
X155780D01*
X155980Y48200D01*
Y48800D01*
X155780Y49000D01*
X152580D01*
X152380Y48800D01*
Y48200D01*
X152580Y48000D01*
G37*
G36*
G01X143820D02*
X147020D01*
X147220Y48200D01*
Y48800D01*
X147020Y49000D01*
X143820D01*
X143620Y48800D01*
Y48200D01*
X143820Y48000D01*
G37*
G36*
G01X135020D02*
X138220D01*
X138420Y48200D01*
Y48800D01*
X138220Y49000D01*
X135020D01*
X134820Y48800D01*
Y48200D01*
X135020Y48000D01*
G37*
G36*
G01X126220D02*
X129420D01*
X129620Y48200D01*
Y48800D01*
X129420Y49000D01*
X126220D01*
X126020Y48800D01*
Y48200D01*
X126220Y48000D01*
G37*
%LPD*%
G75*
G54D10*
X18000Y17500D03*
Y157500D03*
X283000Y17500D03*
Y157500D03*
G54D11*
X10500Y43500D03*
Y87500D03*
Y127500D03*
X40500Y25500D03*
Y61500D03*
X30500Y43500D03*
X20500Y61500D03*
X25000Y67500D03*
X35000D03*
X30500Y127500D03*
X20500Y107500D03*
X40500Y147500D03*
X70500Y7500D03*
X50500D03*
X60500Y25500D03*
X70500Y43500D03*
X50500D03*
X60500Y61500D03*
X71500Y88500D03*
X53000Y90000D03*
X50500Y127500D03*
X67500Y115000D03*
X70500Y167500D03*
X50500D03*
X90500Y7500D03*
X100500Y25500D03*
X80500D03*
X100500Y61500D03*
X80500D03*
X95000Y67500D03*
X91000Y89000D03*
X95000Y127500D03*
X79500D03*
X80500Y107500D03*
X86500Y148000D03*
X90500Y167500D03*
X130500Y7500D03*
X110500D03*
X120500Y25500D03*
X110500Y43500D03*
X120500Y61500D03*
X105000Y67500D03*
X131000Y88000D03*
X113000Y90000D03*
X129500Y127500D03*
X110500D03*
X127500Y115000D03*
X106500Y148000D03*
X130500Y167500D03*
X110500D03*
X150500Y7500D03*
X160500Y25500D03*
X140500D03*
X160500Y61500D03*
X140500D03*
X150500Y87500D03*
X157000Y107500D03*
X141500D03*
X148000Y127500D03*
X140000Y148000D03*
X160000D03*
X150500Y167500D03*
X190500Y7500D03*
X170500D03*
X180500Y25500D03*
X190500Y43500D03*
X170500D03*
X180500Y61500D03*
X185000Y67500D03*
X173000Y90000D03*
X168000Y127500D03*
X183500D03*
X187500Y115000D03*
X190500Y167500D03*
X170500D03*
X210500Y7500D03*
X220500Y25500D03*
X200500D03*
X220500Y61500D03*
X210500Y43500D03*
X200500Y61500D03*
X195000Y67500D03*
X208500Y87500D03*
X218500Y107500D03*
X201000D03*
X202000Y127500D03*
X222000D03*
X193000Y147500D03*
X213000D03*
X210500Y167500D03*
X250500Y7500D03*
X240500Y25500D03*
X250500Y43500D03*
X230500D03*
X240500Y61500D03*
X233000Y90000D03*
X250500Y127500D03*
X247500Y115000D03*
X250500Y167500D03*
X230500D03*
X260500Y25500D03*
X280500Y61500D03*
X270500Y43500D03*
X260500Y61500D03*
X275000Y67500D03*
X265000D03*
X270500Y127500D03*
X280500Y107500D03*
X260500D03*
Y147500D03*
X290500Y43500D03*
X286000Y87500D03*
X290500Y127500D03*
G54D12*
X4950Y74500D03*
G54D13*
X40000Y10500D03*
X260500Y9500D03*
G54D14*
X34950Y74500D03*
X24950D03*
X14950D03*
X64950D03*
X54950D03*
X44950D03*
X94950D03*
X84950D03*
X74950D03*
X124950D03*
X114950D03*
X104950D03*
X154950D03*
X144950D03*
X134950D03*
X184950D03*
X174950D03*
X164950D03*
X214950D03*
X204950D03*
X194950D03*
X244950D03*
X234950D03*
X224950D03*
X274950D03*
X264950D03*
X254950D03*
X294950D03*
X284950D03*
G54D15*
X47000Y97500D03*
X73000D03*
X57500D03*
X47000Y108000D03*
X73000D03*
X62500D03*
X47000Y160500D03*
X73000D03*
X107000Y97500D03*
X133000D03*
X117500D03*
X107000Y108000D03*
X133000D03*
X122500D03*
X107000Y160500D03*
X133000D03*
X167000Y97500D03*
X193000D03*
X177500D03*
X167000Y108000D03*
X193000D03*
X182500D03*
X167000Y160500D03*
X193000D03*
X227000Y97500D03*
X253000D03*
X237500D03*
X227000Y108000D03*
X253000D03*
X242500D03*
X227000Y160500D03*
X253000D03*
G54D16*
G01X170247Y14000D02*
Y19000D01*
X168600Y14833D01*
X166953Y19000D01*
Y14000D01*
G01X165083D02*
X163500Y19000D01*
X161917Y14000D01*
G01X162487Y15750D02*
X164513D01*
G01X159857Y14000D02*
Y19000D01*
X156943Y14000D01*
Y19000D01*
G01X153300D02*
Y14000D01*
G01X154757Y19000D02*
X151843D01*
G01X148960D02*
X147440D01*
G01X148200D02*
Y14000D01*
G01X148960D02*
X147440D01*
G01X144430Y14667D02*
X143923Y14250D01*
X143353Y14000D01*
X142847D01*
X142340Y14250D01*
X141960Y14667D01*
X141770Y15250D01*
X141897Y15833D01*
X142213Y16333D01*
X142783Y16667D01*
X143543Y16833D01*
X143987Y17167D01*
X144177Y17750D01*
X144050Y18333D01*
X143733Y18750D01*
X143290Y19000D01*
X142847D01*
X142403Y18833D01*
X142023Y18417D01*
G01X138823Y15667D02*
X137177D01*
G01X134293Y15000D02*
X133913Y14417D01*
X133407Y14083D01*
X132837Y14000D01*
X132330Y14083D01*
X131823Y14500D01*
X131507Y15000D01*
X131443Y15500D01*
X131570Y16083D01*
X132013Y16500D01*
X132457Y16667D01*
X133027D01*
G01X132457D02*
X132077Y16917D01*
X131760Y17333D01*
X131633Y17833D01*
X131760Y18333D01*
X132077Y18750D01*
X132647Y19000D01*
X133217Y18917D01*
X133787Y18583D01*
G01X127800Y14000D02*
Y19000D01*
X128560Y18000D01*
G01Y14000D02*
X127040D01*
G01X122700Y19000D02*
X123207Y18833D01*
X123587Y18417D01*
X123840Y17917D01*
X124030Y17250D01*
X124093Y16500D01*
X124030Y15750D01*
X123840Y15083D01*
X123587Y14583D01*
X123207Y14167D01*
X122700Y14000D01*
X122193Y14167D01*
X121813Y14583D01*
X121560Y15083D01*
X121370Y15750D01*
X121307Y16500D01*
X121370Y17250D01*
X121560Y17917D01*
X121813Y18417D01*
X122193Y18833D01*
X122700Y19000D01*
G01X117600D02*
X118107Y18833D01*
X118487Y18417D01*
X118740Y17917D01*
X118930Y17250D01*
X118993Y16500D01*
X118930Y15750D01*
X118740Y15083D01*
X118487Y14583D01*
X118107Y14167D01*
X117600Y14000D01*
X117093Y14167D01*
X116713Y14583D01*
X116460Y15083D01*
X116270Y15750D01*
X116207Y16500D01*
X116270Y17250D01*
X116460Y17917D01*
X116713Y18417D01*
X117093Y18833D01*
X117600Y19000D01*
G01X108667Y14000D02*
Y19000D01*
X107083D01*
X106577Y18750D01*
X106260Y18417D01*
X106133Y17750D01*
X106260Y17083D01*
X106640Y16667D01*
X107083Y16417D01*
X108667D01*
G01X107083D02*
X106133Y14000D01*
G01X101033D02*
X103567D01*
Y19000D01*
X101033D01*
G01X102047Y16583D02*
X103567D01*
G01X98783Y19000D02*
X97200Y14000D01*
X95617Y19000D01*
G01X87000D02*
X87507Y18833D01*
X87887Y18417D01*
X88140Y17917D01*
X88330Y17250D01*
X88393Y16500D01*
X88330Y15750D01*
X88140Y15083D01*
X87887Y14583D01*
X87507Y14167D01*
X87000Y14000D01*
X86493Y14167D01*
X86113Y14583D01*
X85860Y15083D01*
X85670Y15750D01*
X85607Y16500D01*
X85670Y17250D01*
X85860Y17917D01*
X86113Y18417D01*
X86493Y18833D01*
X87000Y19000D01*
G01X81900D02*
X82407Y18833D01*
X82787Y18417D01*
X83040Y17917D01*
X83230Y17250D01*
X83293Y16500D01*
X83230Y15750D01*
X83040Y15083D01*
X82787Y14583D01*
X82407Y14167D01*
X81900Y14000D01*
X81393Y14167D01*
X81013Y14583D01*
X80760Y15083D01*
X80570Y15750D01*
X80507Y16500D01*
X80570Y17250D01*
X80760Y17917D01*
X81013Y18417D01*
X81393Y18833D01*
X81900Y19000D01*
G01X78003Y18167D02*
X77623Y18667D01*
X77180Y18917D01*
X76673Y19000D01*
X76040Y18833D01*
X75597Y18417D01*
X75470Y17917D01*
X75533Y17417D01*
X75787Y17000D01*
X77053Y16167D01*
X77623Y15583D01*
X78003Y14750D01*
X78130Y14000D01*
X75470D01*
G01X92537Y39700D02*
Y46000D01*
X90500Y40750D01*
X88463Y46000D01*
Y39700D01*
G01X242560Y7000D02*
Y12000D01*
X240217Y8417D01*
X243383D01*
G01X238000Y4500D02*
X245500D01*
Y14500D01*
X238000D01*
Y4500D01*
G54D17*
G01X8111Y7611D02*
X18000Y17500D01*
G01X8111Y27389D02*
X18000Y17500D01*
G01X4950Y74500D02*
X9152Y70298D01*
G01X4950D02*
Y74500D01*
G01D02*
X9152Y78702D01*
G01X8111Y147611D02*
X18000Y157500D01*
G01X8111Y167389D02*
X18000Y157500D01*
G01Y17500D02*
X27889Y7611D01*
G01X18000Y17500D02*
X27889Y27389D01*
G01X11779Y71329D02*
X14950Y74500D01*
G01D02*
X18121Y77671D01*
G01X11779D02*
X14950Y74500D01*
G01D02*
X18121Y71329D01*
G01X18000Y157500D02*
X27889Y167389D01*
G01X18000Y157500D02*
X27889Y147611D01*
G01X41779Y71329D02*
X44950Y74500D01*
G01D02*
X48121Y77671D01*
G01X41779D02*
X44950Y74500D01*
G01D02*
X48121Y71329D01*
G01X51779D02*
X54950Y74500D01*
G01D02*
X58121Y77671D01*
G01X51779D02*
X54950Y74500D01*
G01D02*
X58121Y71329D01*
G01X61779D02*
X64950Y74500D01*
G01D02*
X68121Y77671D01*
G01X61779D02*
X64950Y74500D01*
G01D02*
X68121Y71329D01*
G01X42945Y93445D02*
X47000Y97500D01*
G01D02*
X51055Y101555D01*
G01X42945D02*
X47000Y97500D01*
G01D02*
X51055Y93445D01*
G01X68945D02*
X73000Y97500D01*
G01X68945Y101555D02*
X73000Y97500D01*
G01X42945Y103945D02*
X47000Y108000D01*
G01D02*
X51055Y112055D01*
G01X42945D02*
X47000Y108000D01*
G01D02*
X51055Y103945D01*
G01X68945D02*
X73000Y108000D01*
G01X68945Y112055D02*
X73000Y108000D01*
G01X42945Y156445D02*
X47000Y160500D01*
G01D02*
X51055Y164555D01*
G01X42945D02*
X47000Y160500D01*
G01D02*
X51055Y156445D01*
G01X68945D02*
X73000Y160500D01*
G01X68945Y164555D02*
X73000Y160500D01*
G01X71779Y71329D02*
X74950Y74500D01*
G01D02*
X78121Y77671D01*
G01X71779D02*
X74950Y74500D01*
G01D02*
X78121Y71329D01*
G01X81779D02*
X84950Y74500D01*
G01D02*
X88121Y77671D01*
G01X81779D02*
X84950Y74500D01*
G01D02*
X88121Y71329D01*
G01X91779D02*
X94950Y74500D01*
G01D02*
X98121Y77671D01*
G01X91779D02*
X94950Y74500D01*
G01D02*
X98121Y71329D01*
G01X73000Y97500D02*
X77055Y101555D01*
G01X73000Y97500D02*
X77055Y93445D01*
G01X73000Y108000D02*
X77055Y112055D01*
G01X73000Y108000D02*
X77055Y103945D01*
G01X73000Y160500D02*
X77055Y164555D01*
G01X73000Y160500D02*
X77055Y156445D01*
G01X121779Y71329D02*
X124950Y74500D01*
G01D02*
X128121Y77671D01*
G01X121779D02*
X124950Y74500D01*
G01D02*
X128121Y71329D01*
G01X102945Y93445D02*
X107000Y97500D01*
G01D02*
X111055Y101555D01*
G01X102945D02*
X107000Y97500D01*
G01D02*
X111055Y93445D01*
G01X128945D02*
X133000Y97500D01*
G01X128945Y101555D02*
X133000Y97500D01*
G01X102945Y103945D02*
X107000Y108000D01*
G01D02*
X111055Y112055D01*
G01X102945D02*
X107000Y108000D01*
G01D02*
X111055Y103945D01*
G01X128945D02*
X133000Y108000D01*
G01X128945Y112055D02*
X133000Y108000D01*
G01X102945Y156445D02*
X107000Y160500D01*
G01D02*
X111055Y164555D01*
G01X102945D02*
X107000Y160500D01*
G01D02*
X111055Y156445D01*
G01X128945D02*
X133000Y160500D01*
G01X128945Y164555D02*
X133000Y160500D01*
G01X131779Y71329D02*
X134950Y74500D01*
G01D02*
X138121Y77671D01*
G01X131779D02*
X134950Y74500D01*
G01D02*
X138121Y71329D01*
G01X141779D02*
X144950Y74500D01*
G01D02*
X148121Y77671D01*
G01X141779D02*
X144950Y74500D01*
G01D02*
X148121Y71329D01*
G01X151779D02*
X154950Y74500D01*
G01D02*
X158121Y77671D01*
G01X151779D02*
X154950Y74500D01*
G01D02*
X158121Y71329D01*
G01X133000Y97500D02*
X137055Y101555D01*
G01X133000Y97500D02*
X137055Y93445D01*
G01X133000Y108000D02*
X137055Y112055D01*
G01X133000Y108000D02*
X137055Y103945D01*
G01X133000Y160500D02*
X137055Y164555D01*
G01X133000Y160500D02*
X137055Y156445D01*
G01X161779Y71329D02*
X164950Y74500D01*
G01D02*
X168121Y77671D01*
G01X161779D02*
X164950Y74500D01*
G01D02*
X168121Y71329D01*
G01X171779D02*
X174950Y74500D01*
G01D02*
X178121Y77671D01*
G01X171779D02*
X174950Y74500D01*
G01D02*
X178121Y71329D01*
G01X162945Y93445D02*
X167000Y97500D01*
G01D02*
X171055Y101555D01*
G01X162945D02*
X167000Y97500D01*
G01D02*
X171055Y93445D01*
G01X188945D02*
X193000Y97500D01*
G01X188945Y101555D02*
X193000Y97500D01*
G01X162945Y103945D02*
X167000Y108000D01*
G01D02*
X171055Y112055D01*
G01X162945D02*
X167000Y108000D01*
G01D02*
X171055Y103945D01*
G01X188945D02*
X193000Y108000D01*
G01X188945Y112055D02*
X193000Y108000D01*
G01X162945Y156445D02*
X167000Y160500D01*
G01D02*
X171055Y164555D01*
G01X162945D02*
X167000Y160500D01*
G01D02*
X171055Y156445D01*
G01X188945D02*
X193000Y160500D01*
G01X188945Y164555D02*
X193000Y160500D01*
G01X201779Y71329D02*
X204950Y74500D01*
G01D02*
X208121Y77671D01*
G01X201779D02*
X204950Y74500D01*
G01D02*
X208121Y71329D01*
G01X211779D02*
X214950Y74500D01*
G01D02*
X218121Y77671D01*
G01X211779D02*
X214950Y74500D01*
G01D02*
X218121Y71329D01*
G01X193000Y97500D02*
X197055Y101555D01*
G01X193000Y97500D02*
X197055Y93445D01*
G01X193000Y108000D02*
X197055Y112055D01*
G01X193000Y108000D02*
X197055Y103945D01*
G01X193000Y160500D02*
X197055Y164555D01*
G01X193000Y160500D02*
X197055Y156445D01*
G01X221779Y71329D02*
X224950Y74500D01*
G01D02*
X228121Y77671D01*
G01X221779D02*
X224950Y74500D01*
G01D02*
X228121Y71329D01*
G01X231779D02*
X234950Y74500D01*
G01D02*
X238121Y77671D01*
G01X231779D02*
X234950Y74500D01*
G01D02*
X238121Y71329D01*
G01X241779D02*
X244950Y74500D01*
G01D02*
X248121Y77671D01*
G01X241779D02*
X244950Y74500D01*
G01D02*
X248121Y71329D01*
G01X222945Y93445D02*
X227000Y97500D01*
G01D02*
X231055Y101555D01*
G01X222945D02*
X227000Y97500D01*
G01D02*
X231055Y93445D01*
G01X248945D02*
X253000Y97500D01*
G01X248945Y101555D02*
X253000Y97500D01*
G01X222945Y103945D02*
X227000Y108000D01*
G01D02*
X231055Y112055D01*
G01X222945D02*
X227000Y108000D01*
G01D02*
X231055Y103945D01*
G01X248945D02*
X253000Y108000D01*
G01X248945Y112055D02*
X253000Y108000D01*
G01X222945Y156445D02*
X227000Y160500D01*
G01D02*
X231055Y164555D01*
G01X222945D02*
X227000Y160500D01*
G01D02*
X231055Y156445D01*
G01X248945D02*
X253000Y160500D01*
G01X248945Y164555D02*
X253000Y160500D01*
G01X273111Y7611D02*
X283000Y17500D01*
G01X273111Y27389D02*
X283000Y17500D01*
G01X251779Y71329D02*
X254950Y74500D01*
G01D02*
X258121Y77671D01*
G01X251779D02*
X254950Y74500D01*
G01D02*
X258121Y71329D01*
G01X253000Y97500D02*
X257055Y101555D01*
G01X253000Y97500D02*
X257055Y93445D01*
G01X253000Y108000D02*
X257055Y112055D01*
G01X253000Y108000D02*
X257055Y103945D01*
G01X273111Y147611D02*
X283000Y157500D01*
G01X273111Y167389D02*
X283000Y157500D01*
G01X253000Y160500D02*
X257055Y164555D01*
G01X253000Y160500D02*
X257055Y156445D01*
G01X283000Y17500D02*
X292889Y7611D01*
G01X283000Y17500D02*
X292889Y27389D01*
G01X294950Y70298D02*
Y74500D01*
G01X281779Y71329D02*
X284950Y74500D01*
G01D02*
X288121Y77671D01*
G01X281779D02*
X284950Y74500D01*
G01D02*
X288121Y71329D01*
G01X291779D02*
X294950Y74500D01*
G01X291779Y77671D02*
X294950Y74500D01*
G01X283000Y157500D02*
X292889Y167389D01*
G01X283000Y157500D02*
X292889Y147611D01*
G54D18*
G01X101750Y37250D02*
X84250D01*
X79250Y48500D01*
X96750D01*
X101750Y37250D01*
M02*
