M48
INCH,LZ
T01C.014
T02C.032
T03C.055
T04C.141
;LEADER: 12 
;HEADER: 
;CODE  : ASCII 
;FILE  : mantis-3100_rev002-1-4.drl for  ... layers TOP and BOTTOM
;DESIGN: mantis-3100_rev002.brd
;T01 Holesize 1. = 14.000000 Tolerance = +3.000000/-3.000000 PLATED MILS Quantity = 113
;T02 Holesize 2. = 32.000000 Tolerance = +3.000000/-3.000000 PLATED MILS Quantity = 30
;T03 Holesize 3. = 55.000000 Tolerance = +3.000000/-3.000000 PLATED MILS Quantity = 32
;T04 Holesize 4. = 141.000000 Tolerance = +3.000000/-3.000000 PLATED MILS Quantity = 4
%
G90
T01
X0035Y00675
X0025Y00675
X00605Y00255
X00505Y00075
X00405Y00255
X00805Y00255
X00705Y00075
X00205Y00615
X00305Y00435
X00105Y00435
X00605Y00615
X00505Y00435
X00405Y00615
X00805Y00615
X00705Y00435
X00865Y0148
X00105Y00875
X0053Y009
X00715Y00885
X00205Y01075
X00675Y0115
X00805Y01075
X00305Y01275
X00105Y01275
X00505Y01275
X00405Y01475
X00795Y01275
X00505Y01675
X00705Y01675
X01875Y0115
X0173Y009
X01275Y0115
X0113Y009
X0091Y0089
X0195Y00675
X0265Y00675
X0275Y00675
X01065Y0148
X016Y0148
X014Y0148
X01835Y01275
X0168Y01275
X0148Y01275
X02005Y00255
X02105Y00075
X01905Y00075
X02405Y00255
X02205Y00255
X02605Y00255
X02505Y00075
X02005Y00615
X02105Y00435
X01905Y00435
X02405Y00615
X02305Y00435
X02205Y00615
X02605Y00615
X02705Y00435
X02505Y00435
X02805Y00615
X01505Y00875
X0131Y0088
X01415Y01075
X00905Y01675
X01105Y01675
X01505Y01675
X01305Y01675
X01705Y01675
X0157Y01075
X0095Y01275
X01105Y01275
X01295Y01275
X02475Y0115
X0233Y009
X0105Y00675
X0095Y00675
X0185Y00675
X0213Y01475
X0193Y01475
X0286Y00875
X0222Y01275
X0202Y01275
X00905Y00075
X01205Y00255
X01105Y00075
X01005Y00255
X01405Y00255
X01505Y00075
X01305Y00075
X01805Y00255
X01705Y00075
X01605Y00255
X01205Y00615
X01105Y00435
X01005Y00615
X01405Y00615
X01805Y00615
X01705Y00435
X01605Y00615
X02085Y00875
X0201Y01075
X02185Y01075
X02605Y01075
X02805Y01075
X02605Y01475
X02705Y01275
X02505Y01275
X02105Y01675
X01905Y01675
X02305Y01675
X02505Y01675
X02905Y01275
X02905Y00435
T02
X000495Y00745
X001495Y00745
X002495Y00745
X003495Y00745
X004495Y00745
X005495Y00745
X006495Y00745
X007495Y00745
X008495Y00745
X019495Y00745
X020495Y00745
X021495Y00745
X022495Y00745
X023495Y00745
X024495Y00745
X025495Y00745
X026495Y00745
X027495Y00745
X028495Y00745
X009495Y00745
X010495Y00745
X011495Y00745
X012495Y00745
X013495Y00745
X014495Y00745
X015495Y00745
X016495Y00745
X017495Y00745
X018495Y00745
X029495Y00745
T03
X00575Y00975
X00625Y0108
X0073Y00975
X0073Y0108
X0073Y01605
X0047Y01605
X0047Y0108
X0047Y00975
X01175Y00975
X01225Y0108
X0133Y00975
X0133Y0108
X0133Y01605
X0107Y01605
X0107Y0108
X0107Y00975
X01775Y00975
X01825Y0108
X0167Y01605
X0167Y0108
X0167Y00975
X0193Y00975
X0193Y0108
X0193Y01605
X02375Y00975
X02425Y0108
X0253Y00975
X0253Y0108
X0253Y01605
X0227Y01605
X0227Y0108
X0227Y00975
T04
X0018Y00175
X0018Y01575
X0283Y00175
X0283Y01575
M30
