G04 ================== begin FILE IDENTIFICATION RECORD ==================*
G04 Layout Name:  mantis-3100_rev002.brd*
G04 Film Name:    smask_top.art*
G04 File Format:  Gerber RS274X*
G04 File Origin:  Cadence Allegro 17.2-S041*
G04 Origin Date:  Tue Dec 11 12:39:34 2018*
G04 *
G04 Layer:  BOARD GEOMETRY/SOLDERMASK_TOP*
G04 Layer:  PIN/SOLDERMASK_TOP*
G04 Layer:  VIA CLASS/SOLDERMASK_TOP*
G04 Layer:  PACKAGE GEOMETRY/SOLDERMASK_TOP*
G04 *
G04 Offset:    (0.00 0.00)*
G04 Mirror:    No*
G04 Mode:      Positive*
G04 Rotation:  0*
G04 FullContactRelief:  No*
G04 UndefLineWidth:     10.00*
G04 ================== end FILE IDENTIFICATION RECORD ====================*
%FSLAX55Y55*MOIN*%
%IR0*IPPOS*OFA0.00000B0.00000*MIA0B0*SFA1.00000B1.00000*%
%ADD14C,.06*%
%ADD11C,.018*%
%ADD15C,.085*%
%ADD12R,.06X.06*%
%ADD13C,.15*%
%ADD10C,.25*%
G75*
%LPD*%
G75*
G36*
G01X214800Y3800D02*
X246200D01*
Y15200D01*
X214800D01*
Y3800D01*
G37*
G54D10*
X18000Y17500D03*
Y157500D03*
X283000Y17500D03*
Y157500D03*
G54D11*
X10500Y43500D03*
Y87500D03*
Y127500D03*
X40500Y25500D03*
Y61500D03*
X30500Y43500D03*
X20500Y61500D03*
X25000Y67500D03*
X35000D03*
X30500Y127500D03*
X20500Y107500D03*
X40500Y147500D03*
X70500Y7500D03*
X50500D03*
X60500Y25500D03*
X70500Y43500D03*
X50500D03*
X60500Y61500D03*
X71500Y88500D03*
X53000Y90000D03*
X50500Y127500D03*
X67500Y115000D03*
X70500Y167500D03*
X50500D03*
X90500Y7500D03*
X100500Y25500D03*
X80500D03*
X100500Y61500D03*
X80500D03*
X95000Y67500D03*
X91000Y89000D03*
X95000Y127500D03*
X79500D03*
X80500Y107500D03*
X86500Y148000D03*
X90500Y167500D03*
X130500Y7500D03*
X110500D03*
X120500Y25500D03*
X110500Y43500D03*
X120500Y61500D03*
X105000Y67500D03*
X131000Y88000D03*
X113000Y90000D03*
X129500Y127500D03*
X110500D03*
X127500Y115000D03*
X106500Y148000D03*
X130500Y167500D03*
X110500D03*
X150500Y7500D03*
X160500Y25500D03*
X140500D03*
X160500Y61500D03*
X140500D03*
X150500Y87500D03*
X157000Y107500D03*
X141500D03*
X148000Y127500D03*
X140000Y148000D03*
X160000D03*
X150500Y167500D03*
X190500Y7500D03*
X170500D03*
X180500Y25500D03*
X190500Y43500D03*
X170500D03*
X180500Y61500D03*
X185000Y67500D03*
X173000Y90000D03*
X168000Y127500D03*
X183500D03*
X187500Y115000D03*
X190500Y167500D03*
X170500D03*
X210500Y7500D03*
X220500Y25500D03*
X200500D03*
X220500Y61500D03*
X210500Y43500D03*
X200500Y61500D03*
X195000Y67500D03*
X208500Y87500D03*
X218500Y107500D03*
X201000D03*
X202000Y127500D03*
X222000D03*
X193000Y147500D03*
X213000D03*
X210500Y167500D03*
X250500Y7500D03*
X240500Y25500D03*
X250500Y43500D03*
X230500D03*
X240500Y61500D03*
X233000Y90000D03*
X250500Y127500D03*
X247500Y115000D03*
X250500Y167500D03*
X230500D03*
X260500Y25500D03*
X280500Y61500D03*
X270500Y43500D03*
X260500Y61500D03*
X275000Y67500D03*
X265000D03*
X270500Y127500D03*
X280500Y107500D03*
X260500D03*
Y147500D03*
X290500Y43500D03*
X286000Y87500D03*
X290500Y127500D03*
G54D12*
X4950Y74500D03*
G54D13*
X40000Y10500D03*
X260500Y9500D03*
G54D14*
X34950Y74500D03*
X24950D03*
X14950D03*
X64950D03*
X54950D03*
X44950D03*
X94950D03*
X84950D03*
X74950D03*
X124950D03*
X114950D03*
X104950D03*
X154950D03*
X144950D03*
X134950D03*
X184950D03*
X174950D03*
X164950D03*
X214950D03*
X204950D03*
X194950D03*
X244950D03*
X234950D03*
X224950D03*
X274950D03*
X264950D03*
X254950D03*
X294950D03*
X284950D03*
G54D15*
X47000Y97500D03*
X73000D03*
X57500D03*
X47000Y108000D03*
X73000D03*
X62500D03*
X47000Y160500D03*
X73000D03*
X107000Y97500D03*
X133000D03*
X117500D03*
X107000Y108000D03*
X133000D03*
X122500D03*
X107000Y160500D03*
X133000D03*
X167000Y97500D03*
X193000D03*
X177500D03*
X167000Y108000D03*
X193000D03*
X182500D03*
X167000Y160500D03*
X193000D03*
X227000Y97500D03*
X253000D03*
X237500D03*
X227000Y108000D03*
X253000D03*
X242500D03*
X227000Y160500D03*
X253000D03*
M02*
